<?xml version="1.0" standalone="no"?>
<!DOCTYPE svg PUBLIC "-//W3C//DTD SVG 20010904//EN"
 "http://www.w3.org/TR/2001/REC-SVG-20010904/DTD/svg10.dtd">
<svg version="1.0" xmlns="http://www.w3.org/2000/svg"
 width="630.000000pt" height="630.000000pt" viewBox="0 0 630.000000 630.000000"
 preserveAspectRatio="xMidYMid meet">
<metadata>
Created by potrace 1.14, written by Peter Selinger 2001-2017
</metadata>
<g transform="translate(0.000000,630.000000) scale(0.100000,-0.100000)"
fill="#000000" stroke="none">
<path d="M3072 5770 c-13 -5 -134 -74 -270 -154 -434 -252 -924 -535 -1407
-811 -267 -153 -486 -284 -507 -305 -21 -21 -41 -53 -47 -77 -8 -30 -11 -397
-9 -1295 3 -1372 -1 -1280 60 -1334 12 -12 343 -205 733 -429 391 -224 865
-497 1054 -607 428 -248 409 -238 474 -238 50 0 66 8 323 156 580 336 1057
611 1464 844 234 134 438 255 453 269 16 14 37 43 48 63 18 36 19 77 19 1299
l0 1263 -21 44 c-15 30 -38 54 -73 77 -28 18 -314 184 -636 368 -517 296 -781
448 -1359 782 -142 83 -158 89 -215 92 -33 2 -71 -2 -84 -7z m-460 -1581 c118
-25 243 -100 308 -184 141 -183 146 -418 12 -635 -58 -95 -253 -291 -500 -504
-100 -87 -207 -187 -238 -224 l-55 -67 446 -3 445 -2 0 -110 0 -110 -608 0
-608 0 8 67 c9 81 58 189 128 282 62 84 219 238 384 376 151 127 285 258 343
335 133 176 147 351 40 481 -154 188 -492 142 -589 -79 -11 -26 -23 -76 -26
-111 l-5 -64 -86 7 c-141 11 -151 14 -151 46 0 41 36 173 61 222 72 143 208
244 374 278 61 12 258 11 317 -1z m1403 -4 c230 -60 380 -272 432 -610 21
-140 20 -484 -2 -630 -30 -201 -97 -363 -194 -467 -98 -106 -225 -158 -391
-158 -256 0 -435 136 -526 403 -99 290 -95 824 10 1101 69 183 204 317 366
362 65 18 234 17 305 -1z"/>
<path d="M3778 3997 c-160 -45 -239 -200 -267 -522 -27 -310 4 -637 74 -776
73 -143 220 -215 358 -175 64 19 153 92 191 160 63 109 88 273 88 576 0 387
-37 544 -157 662 -74 73 -188 103 -287 75z"/>
</g>
</svg>
