<?xml version="1.0" encoding="UTF-8" standalone="no"?>
<svg
   xmlns:dc="http://purl.org/dc/elements/1.1/"
   xmlns:cc="http://creativecommons.org/ns#"
   xmlns:rdf="http://www.w3.org/1999/02/22-rdf-syntax-ns#"
   xmlns:svg="http://www.w3.org/2000/svg"
   xmlns="http://www.w3.org/2000/svg"
   xmlns:sodipodi="http://sodipodi.sourceforge.net/DTD/sodipodi-0.dtd"
   xmlns:inkscape="http://www.inkscape.org/namespaces/inkscape"
   width="125mm"
   height="125mm"
   viewBox="0 0 125 125"
   version="1.1"
   id="svg8"
   inkscape:version="1.0 (4035a4fb49, 2020-05-01)"
   sodipodi:docname="str.svg">
  <defs
     id="defs2" />
  <sodipodi:namedview
     id="base"
     pagecolor="#ffffff"
     bordercolor="#666666"
     borderopacity="1.0"
     inkscape:pageopacity="0.0"
     inkscape:pageshadow="2"
     inkscape:zoom="0.98994949"
     inkscape:cx="182.94525"
     inkscape:cy="252.82335"
     inkscape:document-units="mm"
     inkscape:current-layer="g861"
     inkscape:document-rotation="0"
     showgrid="false"
     inkscape:window-width="1680"
     inkscape:window-height="987"
     inkscape:window-x="-8"
     inkscape:window-y="-8"
     inkscape:window-maximized="1" />
  <metadata
     id="metadata5">
    <rdf:RDF>
      <cc:Work
         rdf:about="">
        <dc:format>image/svg+xml</dc:format>
        <dc:type
           rdf:resource="http://purl.org/dc/dcmitype/StillImage" />
        <dc:title />
      </cc:Work>
    </rdf:RDF>
  </metadata>
  <g
     inkscape:label="Layer 1"
     inkscape:groupmode="layer"
     id="layer1">
    <g
       id="g861"
       inkscape:label="STR"
       style="display:inline;stroke-width:0.0895471"
       transform="matrix(11.303954,0,0,11.032263,-842.42419,-519.10067)"
       inkscape:transform-center-x="-59.8988"
       inkscape:transform-center-y="58.383038">
      <path
         sodipodi:nodetypes="cccccccccccc"
         id="path847"
         d="m 85.392613,52.785732 c 0.13116,-0.871021 -2.978305,-0.944515 -2.037929,0.200451 0.149378,-0.829961 -2.381598,-1.280823 -2.873147,0.451019 0.757077,-0.806177 -1.609167,-0.450346 -1.186011,0.200451 1.028822,-0.749806 0.617675,-1.793298 0.517837,-2.756218 0.476186,0.165517 0.652844,0.190248 0.908606,0.229807 0.388876,0.02782 1.115576,-0.627849 0.944388,-0.857999 -0.106557,-0.11866 -0.12107,-0.129929 -0.215969,-0.140208 0.493718,-0.811903 -0.347079,-1.076312 -1.035669,-1.403165 -2.30949,0.75603 -3.348989,3.81313 -3.290755,5.579253 0.04254,0.802171 3.735495,2.284619 7.383319,1.35305 0.561524,-1.002246 0.828236,-1.949053 0.88533,-2.856441 z"
         style="fill:#ffeeaa;stroke:none;stroke-width:0.00582059;stroke-linecap:butt;stroke-linejoin:miter;stroke-miterlimit:4;stroke-dasharray:none;stroke-opacity:1" />
      <ellipse
         inkscape:label="Rim"
         ry="5.3175001"
         rx="5.3174996"
         cy="52.741138"
         cx="80.036026"
         id="path845"
         style="fill:none;stroke:#ffffff;stroke-width:0.1790946;stroke-linecap:round;stroke-linejoin:round;stroke-miterlimit:4;stroke-dasharray:none" />
    </g>
  </g>
</svg>
